<svg width="60" height="60" viewBox="0 0 60 60" fill="none" xmlns="http://www.w3.org/2000/svg">
<circle cx="30" cy="30" r="29.5" stroke="#F9C83B"/>
<path d="M21.8332 22H26.3231L27.7703 25.618L25.4455 27.1679C25.1673 27.3534 25.0002 27.6656 25.0002 28C25.0027 28.0936 25.0002 28.001 25.0002 28.001L25.0002 28.002L25.0002 28.0043L25.0002 28.0093L25.0004 28.0217C25.0005 28.0309 25.0008 28.0421 25.0012 28.0552C25.002 28.0814 25.0035 28.1153 25.0063 28.1564C25.0118 28.2385 25.0221 28.3494 25.0415 28.4852C25.0802 28.7565 25.1554 29.1281 25.3015 29.5662C25.5947 30.4459 26.1709 31.5849 27.2931 32.7071C28.4152 33.8293 29.5542 34.4054 30.4339 34.6987C30.8721 34.8447 31.2437 34.9199 31.515 34.9587C31.6507 34.9781 31.7617 34.9884 31.8438 34.9939C31.8849 34.9966 31.9188 34.9981 31.945 34.999C31.9581 34.9994 31.9693 34.9997 31.9785 34.9998L31.9908 35L31.9959 35L31.9981 35L31.9992 35C31.9992 35 32.1108 34.9939 32.0002 35C32.3789 35 32.7252 34.786 32.8946 34.4472L33.5643 33.1078L38.0002 33.8471V38.167C35.8891 38.4723 30.1876 38.7732 25.7073 34.2929C21.227 29.8126 21.5279 24.1111 21.8332 22ZM27.0738 28.4861L28.8797 27.2821C29.6667 26.7575 29.9785 25.7534 29.6273 24.8752L28.1801 21.2572C27.8764 20.4979 27.1409 20 26.3231 20H21.7809C20.8724 20 20.0173 20.6312 19.8681 21.6169C19.5288 23.8595 19.067 30.481 24.2931 35.7071C29.5192 40.9332 36.1407 40.4714 38.3833 40.1321C39.369 39.9829 40.0002 39.1277 40.0002 38.2192V33.8471C40.0002 32.8694 39.2933 32.0351 38.329 31.8743L33.8931 31.135C33.027 30.9907 32.1681 31.4281 31.7754 32.2134L31.4289 32.9064C31.32 32.8796 31.1985 32.8453 31.0664 32.8013C30.4461 32.5946 29.5851 32.1707 28.7073 31.2929C27.8294 30.4151 27.4056 29.5541 27.1988 28.9338C27.143 28.7662 27.1028 28.6154 27.0738 28.4861Z" fill="#F9C83B"/>
</svg>
