<svg width="46" height="46" viewBox="0 0 46 46" fill="none" xmlns="http://www.w3.org/2000/svg">
<rect width="46" height="46" rx="23" fill="#F9C83B"/>
<path fill-rule="evenodd" clip-rule="evenodd" d="M28.4251 14.0165C28.3638 14.0337 28.3067 14.0637 28.2577 14.1045L14.1631 25.8511C14.0904 25.9116 14.0385 25.9935 14.0146 26.0852C13.9908 26.1768 13.9962 26.2736 14.0301 26.362C14.064 26.4504 14.1247 26.526 14.2037 26.5781C14.2827 26.6302 14.376 26.6562 14.4706 26.6525L21.6741 26.3717L25.0332 32.758C25.0773 32.8418 25.1465 32.9096 25.231 32.952C25.3155 32.9944 25.4112 33.0092 25.5046 32.9944C25.598 32.9796 25.6844 32.9359 25.7518 32.8694C25.8191 32.8029 25.8639 32.717 25.88 32.6237L28.9935 14.5297C29.0064 14.4544 29 14.377 28.975 14.3048C28.95 14.2326 28.9071 14.1679 28.8504 14.1167C28.7937 14.0655 28.725 14.0295 28.6507 14.012C28.5764 13.9945 28.4989 13.9962 28.4253 14.0167L28.4251 14.0165ZM27.8922 15.5892L25.2135 31.1552L22.3425 25.696C22.3027 25.6204 22.2423 25.5575 22.1683 25.5147C22.0943 25.472 22.0098 25.451 21.9244 25.4543L15.7668 25.6947L27.8922 15.5892Z" fill="black"/>
</svg>
